<svg width="355" height="304" viewBox="0 0 355 304" fill="none" xmlns="http://www.w3.org/2000/svg">
<path d="M333.456 286.581L323.488 299.94L309.585 290.397C303.094 285.16 309.376 270.78 320.068 279.905C327.107 267.949 337.829 279.612 333.456 286.581Z" stroke="#B2E5D2" stroke-width="2.5" stroke-miterlimit="10" stroke-linecap="round" stroke-linejoin="round"/>
<path d="M250.628 67.3619C254.907 68.1985 258.221 71.6414 258.962 75.953L268.775 135.382C275.371 175.281 262.823 191.884 214.076 243.398C211.727 245.876 207.994 246.487 205.002 244.91C142.291 211.801 125.076 200.089 118.512 160.19L108.699 100.761C107.991 96.4492 110.018 92.1376 113.815 89.9496L173.952 55.2637C176.558 53.7514 179.615 53.2688 182.575 53.8479L250.628 67.3619Z" stroke="#00AB6B" stroke-width="2.5" stroke-miterlimit="10" stroke-linecap="round" stroke-linejoin="round"/>
<path d="M236.051 83.3834C240.041 84.1878 243.098 87.3411 243.773 91.3631L251.528 138.308C254.327 155.297 252.911 165.626 246.122 177.724C239.526 189.468 227.46 203.24 210.149 221.677C207.961 223.993 204.486 224.573 201.687 223.06C179.357 211.155 163.494 201.985 153.487 192.976C143.158 183.677 138.525 174.378 135.726 157.389L127.971 110.444C127.296 106.454 129.194 102.432 132.701 100.405L177.426 74.6314C179.839 73.2479 182.671 72.7652 185.406 73.3122L236.051 83.3834Z" stroke="#00AB6B" stroke-width="2.5" stroke-miterlimit="10" stroke-linecap="round" stroke-linejoin="round"/>
<path d="M162.144 153.272L188.206 174.219C191.199 176.632 195.639 175.667 197.376 172.256L228.394 112.022C231.612 105.748 222.764 100.439 218.742 106.23L187.531 151.309L166.97 144.391C161.564 142.557 157.671 149.668 162.144 153.272Z" stroke="#00AB6B" stroke-width="2.5" stroke-miterlimit="10" stroke-linecap="round" stroke-linejoin="round"/>
<path d="M60.0532 19.8936C62.467 37.5147 44.4971 41.2428 44.4971 41.2428C53.3479 39.3385 64.2639 46.3655 65.8464 56.7988C65.8464 56.7988 63.5129 37.622 81.4023 35.4495C63.5129 37.622 60.0532 19.8936 60.0532 19.8936Z" stroke="#B2E5D2" stroke-width="2.5" stroke-miterlimit="10" stroke-linecap="round" stroke-linejoin="round"/>
<path d="M66.6063 110.479C63.4922 119.478 54.562 116.694 54.562 116.694C58.9777 118.025 62.1907 124.134 60.4112 129.491C60.4112 129.491 63.9207 119.775 72.4555 123.277C63.9372 119.775 66.6063 110.479 66.6063 110.479Z" stroke="#B2E5D2" stroke-width="2.5" stroke-miterlimit="10" stroke-linecap="round" stroke-linejoin="round"/>
<path d="M279.695 284.94C277.581 290.689 271.52 288.911 271.52 288.911C274.517 289.76 276.698 293.663 275.49 297.086C275.49 297.086 277.872 290.879 283.665 293.115C277.883 290.879 279.695 284.94 279.695 284.94Z" stroke="#B2E5D2" stroke-width="2.5" stroke-miterlimit="10" stroke-linecap="round" stroke-linejoin="round"/>
<path d="M15.4201 95.0232C14.257 88.6374 7.40158 84.5332 2 85.8752C2 85.8752 12.9821 83.2471 11.148 72.4551C11.148 72.4551 13.6084 83.2918 24.5681 81.6031C13.6084 83.2806 15.4201 95.0232 15.4201 95.0232Z" stroke="#B2E5D2" stroke-width="2.5" stroke-miterlimit="10" stroke-linecap="round" stroke-linejoin="round"/>
<path d="M328.482 239.785C324.896 261.392 304.488 276.016 282.881 272.429C261.274 268.843 246.673 248.446 250.27 226.817C253.856 205.209 274.253 190.608 295.86 194.195L289.376 233.301L328.482 239.785Z" stroke="#00AB6B" stroke-width="2.5" stroke-miterlimit="10" stroke-linecap="round" stroke-linejoin="round"/>
<path d="M342.097 230.034L302.958 223.562L309.442 184.456C331.082 188.03 345.673 208.45 342.097 230.034Z" stroke="#00AB6B" stroke-width="2.5" stroke-miterlimit="10" stroke-linecap="round" stroke-linejoin="round"/>
<path d="M254.032 2.0106C247.354 2.28777 242.176 7.93199 242.453 14.6093C242.731 21.2866 248.375 26.4647 255.04 26.1875C261.717 25.9103 266.908 20.2661 266.618 13.6014C266.341 6.92411 260.696 1.73343 254.032 2.0106ZM254.8 20.5559C251.235 20.7071 248.224 17.9354 248.085 14.3825C247.934 10.8171 250.706 7.80599 254.258 7.66741C257.824 7.51622 260.835 10.288 260.974 13.8408C261.137 17.3936 258.366 20.4047 254.8 20.5559Z" stroke="#00AB6B" stroke-width="2.5" stroke-miterlimit="10" stroke-linecap="round" stroke-linejoin="round"/>
<path d="M283.526 35.7489C276.849 36.0261 271.67 41.6703 271.948 48.3476C272.225 55.0249 277.869 60.203 284.534 59.9258C291.211 59.6486 296.402 54.0044 296.112 47.3397C295.847 40.6624 290.203 35.4717 283.526 35.7489ZM284.307 54.2816C280.742 54.4327 277.73 51.661 277.592 48.1082C277.441 44.5428 280.212 41.5317 283.765 41.3931C287.331 41.2419 290.342 44.0136 290.48 47.5665C290.632 51.1319 287.872 54.143 284.307 54.2816Z" stroke="#00AB6B" stroke-width="2.5" stroke-miterlimit="10" stroke-linecap="round" stroke-linejoin="round"/>
<path d="M249.459 50.9435L244.81 44.871C244.558 44.5308 244.621 44.0521 244.949 43.8001L277.605 18.5271L275.173 15.3522C274.77 14.8357 275.173 14.0798 275.828 14.1176L289.233 14.8483C289.7 14.8735 290.04 15.3144 289.939 15.7806L287.318 28.2533C287.18 28.8959 286.348 29.0848 285.958 28.5683L283.451 25.2926L250.53 51.0947C250.203 51.3467 249.724 51.2837 249.459 50.9435Z" stroke="#00AB6B" stroke-width="2.5" stroke-miterlimit="10" stroke-linecap="round" stroke-linejoin="round"/>
<path d="M125.845 273.254L128.675 267.36L125.219 266.957L122.423 272.862L119.001 272.459L121.797 266.555L118.308 266.141L119.594 263.3L123.161 263.714L125.834 257.91L122.267 257.496L123.519 254.7L127.187 255.136L129.95 249.153L133.372 249.556L130.609 255.539L134.031 255.942L136.794 249.958L140.249 250.361L137.409 256.333L140.932 256.747L139.724 259.554L136.089 259.129L133.383 264.933L137.051 265.369L135.798 268.21L132.052 267.774L129.301 273.679L125.845 273.254ZM132.678 258.726L129.256 258.324L126.583 264.128L129.961 264.519L132.678 258.726Z" stroke="#B2E5D2" stroke-width="2.5" stroke-miterlimit="10" stroke-linecap="round" stroke-linejoin="round"/>
<path d="M146.847 275.715L148.916 258.112L144.398 261.747L141.814 258.313L150.347 251.536L154.854 252.062L152.014 276.307L146.847 275.715Z" stroke="#B2E5D2" stroke-width="2.5" stroke-miterlimit="10" stroke-linecap="round" stroke-linejoin="round"/>
<path d="M290.378 144.219C290.418 144.167 290.466 144.136 290.509 144.095L292.382 142.328C292.409 142.305 292.443 142.268 292.47 142.245C293.735 141.008 294.393 139.303 294.42 137.523C294.457 135.282 295.365 133.056 297.118 131.409C300.679 128.045 306.364 128.301 309.591 132.061C312.476 135.416 312.3 140.576 309.194 143.723C307.392 145.546 305.01 146.397 302.659 146.296C300.909 146.221 299.188 146.796 297.891 147.985C297.864 148.008 297.827 148.035 297.8 148.058L295.806 149.945C295.806 149.945 295.806 149.945 295.795 149.949L290.378 144.219Z" stroke="#B2E5D2" stroke-width="2.5" stroke-miterlimit="10" stroke-linecap="round" stroke-linejoin="round"/>
<path d="M311.255 129.885L313.811 127.474" stroke="#B2E5D2" stroke-width="2.5" stroke-miterlimit="10" stroke-linecap="round" stroke-linejoin="round"/>
<path d="M314.368 138.021L317.873 138.121" stroke="#B2E5D2" stroke-width="2.5" stroke-miterlimit="10" stroke-linecap="round" stroke-linejoin="round"/>
<path d="M310.809 145.971L313.22 148.527" stroke="#B2E5D2" stroke-width="2.5" stroke-miterlimit="10" stroke-linecap="round" stroke-linejoin="round"/>
<path d="M302.672 149.082L302.573 152.587" stroke="#B2E5D2" stroke-width="2.5" stroke-miterlimit="10" stroke-linecap="round" stroke-linejoin="round"/>
<path d="M291.613 137.387L288.107 137.288" stroke="#B2E5D2" stroke-width="2.5" stroke-miterlimit="10" stroke-linecap="round" stroke-linejoin="round"/>
<path d="M295.17 129.441L292.758 126.885" stroke="#B2E5D2" stroke-width="2.5" stroke-miterlimit="10" stroke-linecap="round" stroke-linejoin="round"/>
<path d="M303.306 126.328L303.405 122.822" stroke="#B2E5D2" stroke-width="2.5" stroke-miterlimit="10" stroke-linecap="round" stroke-linejoin="round"/>
<path d="M290.221 149.759C289.272 148.764 289.317 147.182 290.316 146.243L291.359 145.263L294.779 148.874L293.736 149.854C292.741 150.803 291.17 150.754 290.221 149.759Z" stroke="#B2E5D2" stroke-width="2.5" stroke-miterlimit="10" stroke-linecap="round" stroke-linejoin="round"/>
<path d="M292.468 142.235L297.885 147.965" stroke="#B2E5D2" stroke-width="2.5" stroke-miterlimit="10" stroke-linecap="round" stroke-linejoin="round"/>
<path fill-rule="evenodd" clip-rule="evenodd" d="M46.686 167.008C46.3307 167.688 42.3288 190.301 42.1366 191.501C55.1673 193.102 88.5846 197.985 99.236 198.335C100.525 193.374 103.664 180.717 103.061 176.062C85.5807 173.008 63.9965 169.543 46.686 167.008Z" stroke="#00B162" stroke-width="2.5" stroke-linecap="square"/>
<path d="M112.384 203.032C114.98 201.954 117.635 201.025 120.336 200.249C122.73 201.827 124.998 203.59 127.118 205.521" stroke="#B2E5D2" stroke-width="2" stroke-linecap="square"/>
<path d="M67.8015 178.028C67.1966 183.346 66.9715 186.261 70.9093 187.018C73.9892 187.759 74.7477 183.822 75.8254 180.918" stroke="#00B162" stroke-width="1.5" stroke-linecap="square"/>
<path d="M80.8124 180.484L83.3338 183.97C85.0725 183.32 86.7083 182.423 88.1908 181.306M82.5626 188.767C82.9486 186.368 83.1259 186.028 83.3338 183.97L82.5626 188.767Z" stroke="#00B162" stroke-width="1.5" stroke-linecap="square"/>
<path d="M115.211 218.373C117.404 210.852 118.305 208.287 120.144 201.447" stroke="#B7E6D5" stroke-width="2" stroke-linecap="square"/>
<path d="M56.2506 180.234C56.7997 178.35 56.8137 177.495 57.5392 175.274L60.619 176.015C61.0644 176.286 61.4191 176.683 61.6377 177.156C61.8563 177.63 61.9289 178.157 61.8464 178.672C61.7638 179.187 61.5297 179.665 61.1741 180.046C60.8185 180.428 60.3574 180.694 59.8496 180.812C61.2111 181.523 63.0935 182.071 62.371 184.298C61.985 186.698 58.3875 186.12 54.9665 185.201C55.3359 183.661 55.6919 182.979 56.2551 180.24C57.4443 180.493 58.6456 180.686 59.8542 180.819" stroke="#00B162" stroke-width="1.5" stroke-linecap="square"/>
<path d="M66.0756 227.829C67.7641 229.576 68.608 230.451 70.3554 228.762C71.5868 227.234 68.8897 224.096 70.2826 223.091C70.904 222.65 71.6641 222.449 72.4223 222.526C73.1804 222.602 73.8851 222.952 74.4054 223.508" stroke="#00B162" stroke-width="1.5" stroke-linecap="square"/>
<path fill-rule="evenodd" clip-rule="evenodd" d="M109.091 244.211C107.74 242.64 72.8438 214.027 66.7139 210.828C64.4481 212.678 53.4138 224.687 53.3855 226.404C58.0934 232.328 90.4907 256.604 95.4214 259.609C97.8644 257.42 105.942 247.768 109.091 244.211Z" stroke="#00B162" stroke-width="2.5" stroke-linecap="square"/>
<path d="M84.9108 241.558C83.8889 241.024 82.3642 239.795 81.3423 239.261C82.5737 237.734 84.6891 234.509 86.4522 231.962" stroke="#00B162" stroke-width="1.5" stroke-linecap="square"/>
<path d="M76.4124 236.255C75.2274 235.203 74.207 234.67 73.0212 233.619C74.7445 231.02 76.6243 228.528 78.6502 226.157C79.8337 227.208 81.1967 227.92 82.0414 228.793M79.759 231.502L76.1906 229.206L79.759 231.502Z" stroke="#00B162" stroke-width="1.5" stroke-linecap="square"/>
<path d="M91.0118 246.475C89.959 245.974 88.9859 245.319 88.1241 244.534C89.7092 242.329 90.9538 239.944 92.7154 237.396" stroke="#00B162" stroke-width="1.5" stroke-linecap="square"/>
<path d="M30.9961 229.454C31.7217 227.232 36.6982 217.697 38.1201 214.973" stroke="#B2E5D2" stroke-width="2" stroke-linecap="square"/>
<path d="M37.5112 230.252C35.0278 230.81 32.4679 230.941 29.9404 230.642C29.0598 228.623 28.574 226.455 28.5093 224.254" stroke="#B2E5D2" stroke-width="2" stroke-linecap="square"/>
</svg>
